<mxfile host="app.diagrams.net" modified="2024-06-11T01:04:59.074Z" agent="Mozilla/5.0 (Windows NT 10.0; Win64; x64) AppleWebKit/537.36 (KHTML, like Gecko) Chrome/125.0.0.0 Safari/537.36" etag="-7XefmozT_8iM0nuuzJB" version="24.5.2" type="device">
  <diagram name="PÃ¡gina-1" id="4aeP5MPHnUegkw_-Ujau">
    <mxGraphModel dx="1114" dy="558" grid="1" gridSize="10" guides="1" tooltips="1" connect="1" arrows="1" fold="1" page="1" pageScale="1" pageWidth="827" pageHeight="1169" math="0" shadow="0">
      <root>
        <mxCell id="0" />
        <mxCell id="1" parent="0" />
        <mxCell id="T92ASDZM6Qxce1wt2V_N-1" value="" style="ellipse;html=1;shape=startState;fillColor=#000000;strokeColor=#ff0000;" parent="1" vertex="1">
          <mxGeometry x="10" y="105" width="30" height="30" as="geometry" />
        </mxCell>
        <mxCell id="T92ASDZM6Qxce1wt2V_N-2" value="" style="edgeStyle=orthogonalEdgeStyle;html=1;verticalAlign=bottom;endArrow=open;endSize=8;strokeColor=#ff0000;rounded=0;fontSize=12;curved=1;" parent="1" source="T92ASDZM6Qxce1wt2V_N-1" target="T92ASDZM6Qxce1wt2V_N-3" edge="1">
          <mxGeometry relative="1" as="geometry">
            <mxPoint x="80" y="130" as="targetPoint" />
          </mxGeometry>
        </mxCell>
        <mxCell id="T92ASDZM6Qxce1wt2V_N-10" style="edgeStyle=none;curved=1;rounded=0;orthogonalLoop=1;jettySize=auto;html=1;entryX=0;entryY=0.5;entryDx=0;entryDy=0;fontSize=12;startSize=8;endSize=8;" parent="1" source="T92ASDZM6Qxce1wt2V_N-3" target="T92ASDZM6Qxce1wt2V_N-7" edge="1">
          <mxGeometry relative="1" as="geometry" />
        </mxCell>
        <mxCell id="T92ASDZM6Qxce1wt2V_N-3" value="select x quiantity of the product&amp;nbsp;" style="rounded=1;whiteSpace=wrap;html=1;arcSize=40;fontColor=#000000;fillColor=#ffffc0;strokeColor=#1B1D1E;" parent="1" vertex="1">
          <mxGeometry x="80" y="100" width="120" height="40" as="geometry" />
        </mxCell>
        <mxCell id="KhInlcEV0SsEdob49RUf-1" style="edgeStyle=orthogonalEdgeStyle;rounded=0;orthogonalLoop=1;jettySize=auto;html=1;exitX=0.5;exitY=1;exitDx=0;exitDy=0;" edge="1" parent="1" source="T92ASDZM6Qxce1wt2V_N-7" target="T92ASDZM6Qxce1wt2V_N-11">
          <mxGeometry relative="1" as="geometry">
            <Array as="points">
              <mxPoint x="275" y="210" />
            </Array>
          </mxGeometry>
        </mxCell>
        <mxCell id="KhInlcEV0SsEdob49RUf-3" value="no" style="edgeLabel;html=1;align=center;verticalAlign=middle;resizable=0;points=[];" vertex="1" connectable="0" parent="KhInlcEV0SsEdob49RUf-1">
          <mxGeometry x="-0.427" y="1" relative="1" as="geometry">
            <mxPoint as="offset" />
          </mxGeometry>
        </mxCell>
        <mxCell id="T92ASDZM6Qxce1wt2V_N-7" value="if x &amp;gt; current&lt;div&gt;&amp;nbsp;stock&lt;/div&gt;" style="rhombus;whiteSpace=wrap;html=1;fontColor=#000000;fillColor=#ffffc0;strokeColor=#1B1D1E;" parent="1" vertex="1">
          <mxGeometry x="220" y="77.5" width="110" height="85" as="geometry" />
        </mxCell>
        <mxCell id="T92ASDZM6Qxce1wt2V_N-8" value="no" style="edgeStyle=orthogonalEdgeStyle;html=1;align=left;verticalAlign=bottom;endArrow=open;endSize=8;rounded=0;fontSize=12;curved=1;" parent="1" source="T92ASDZM6Qxce1wt2V_N-7" target="T92ASDZM6Qxce1wt2V_N-16" edge="1">
          <mxGeometry x="-1" relative="1" as="geometry">
            <mxPoint x="360" y="120" as="targetPoint" />
          </mxGeometry>
        </mxCell>
        <mxCell id="KhInlcEV0SsEdob49RUf-2" style="edgeStyle=orthogonalEdgeStyle;rounded=0;orthogonalLoop=1;jettySize=auto;html=1;" edge="1" parent="1" source="T92ASDZM6Qxce1wt2V_N-11" target="T92ASDZM6Qxce1wt2V_N-3">
          <mxGeometry relative="1" as="geometry">
            <Array as="points">
              <mxPoint x="140" y="170" />
              <mxPoint x="140" y="170" />
            </Array>
          </mxGeometry>
        </mxCell>
        <mxCell id="T92ASDZM6Qxce1wt2V_N-11" value="Sorry, the selected quantity is greater than the current stock, please select another quantity less than x (actual stock)" style="rounded=1;whiteSpace=wrap;html=1;" parent="1" vertex="1">
          <mxGeometry x="80" y="180" width="150" height="80" as="geometry" />
        </mxCell>
        <mxCell id="T92ASDZM6Qxce1wt2V_N-16" value="Calculate the Total price of x units" style="rounded=1;whiteSpace=wrap;html=1;arcSize=40;fontColor=#000000;fillColor=#ffffc0;strokeColor=#1B1D1E;" parent="1" vertex="1">
          <mxGeometry x="360" y="100" width="120" height="40" as="geometry" />
        </mxCell>
        <mxCell id="T92ASDZM6Qxce1wt2V_N-17" value="" style="edgeStyle=orthogonalEdgeStyle;html=1;verticalAlign=bottom;endArrow=open;endSize=8;rounded=0;fontSize=12;curved=1;" parent="1" source="T92ASDZM6Qxce1wt2V_N-16" target="T92ASDZM6Qxce1wt2V_N-18" edge="1">
          <mxGeometry relative="1" as="geometry">
            <mxPoint x="570" y="120" as="targetPoint" />
            <Array as="points">
              <mxPoint x="525" y="120" />
              <mxPoint x="525" y="121" />
              <mxPoint x="570" y="121" />
              <mxPoint x="570" y="115" />
            </Array>
          </mxGeometry>
        </mxCell>
        <mxCell id="T92ASDZM6Qxce1wt2V_N-21" style="edgeStyle=none;curved=1;rounded=0;orthogonalLoop=1;jettySize=auto;html=1;fontSize=12;startSize=8;endSize=8;" parent="1" source="T92ASDZM6Qxce1wt2V_N-18" target="T92ASDZM6Qxce1wt2V_N-20" edge="1">
          <mxGeometry relative="1" as="geometry" />
        </mxCell>
        <mxCell id="T92ASDZM6Qxce1wt2V_N-18" value="Show the price to pay" style="rounded=1;whiteSpace=wrap;html=1;arcSize=40;fontColor=#000000;fillColor=#ffffc0;strokeColor=#1B1D1E;" parent="1" vertex="1">
          <mxGeometry x="520" y="100" width="120" height="40" as="geometry" />
        </mxCell>
        <mxCell id="T92ASDZM6Qxce1wt2V_N-20" value="" style="ellipse;html=1;shape=endState;fillColor=#000000;strokeColor=#ff0000;" parent="1" vertex="1">
          <mxGeometry x="680" y="105" width="30" height="30" as="geometry" />
        </mxCell>
      </root>
    </mxGraphModel>
  </diagram>
</mxfile>
